<?xml version="1.0" encoding="UTF-8" standalone="no"?>
<svg
   xmlns:dc="http://purl.org/dc/elements/1.1/"
   xmlns:cc="http://creativecommons.org/ns#"
   xmlns:rdf="http://www.w3.org/1999/02/22-rdf-syntax-ns#"
   xmlns:svg="http://www.w3.org/2000/svg"
   xmlns="http://www.w3.org/2000/svg"
   xmlns:sodipodi="http://sodipodi.sourceforge.net/DTD/sodipodi-0.dtd"
   xmlns:inkscape="http://www.inkscape.org/namespaces/inkscape"
   width="156mm"
   height="28mm"
   viewBox="0 0 156 28"
   version="1.1"
   id="SVGRoot"
   sodipodi:docname="decorative-line.svg"
   inkscape:version="1.0.2 (e86c8708, 2021-01-15)">
  <defs
     id="defs19" />
  <sodipodi:namedview
     id="base"
     pagecolor="#ffffff"
     bordercolor="#666666"
     borderopacity="1.0"
     inkscape:pageopacity="0.0"
     inkscape:pageshadow="2"
     inkscape:zoom="0.54735874"
     inkscape:cx="-84.141142"
     inkscape:cy="210.38756"
     inkscape:document-units="mm"
     inkscape:current-layer="layer1"
     inkscape:document-rotation="0"
     showgrid="false"
     inkscape:window-width="1280"
     inkscape:window-height="678"
     inkscape:window-x="0"
     inkscape:window-y="25"
     inkscape:window-maximized="0" />
  <metadata
     id="metadata22">
    <rdf:RDF>
      <cc:Work
         rdf:about="">
        <dc:format>image/svg+xml</dc:format>
        <dc:type
           rdf:resource="http://purl.org/dc/dcmitype/StillImage" />
        <dc:title></dc:title>
      </cc:Work>
    </rdf:RDF>
  </metadata>
  <g
     inkscape:label="Layer 1"
     inkscape:groupmode="layer"
     id="layer1">
    <g
       inkscape:label="Layer 1"
       id="layer1-8"
       transform="translate(943.25233,373.03372)">
      <path
         d="m -796.40028,-368.98677 c -4.05129,-1.53811 -8.40916,-0.25612 -12.31547,1.09185 -0.0893,0.0307 -0.0533,0.16933 0.0392,0.14287 3.67313,-1.04669 7.70749,-2.23802 11.47833,-0.98037 3.11397,1.03858 5.69736,3.71793 5.29378,7.1882 -0.40287,3.46252 -3.27765,5.9743 -6.43043,7.05803 -3.52072,1.21073 -7.34765,1.05622 -10.99185,0.60713 -15.3924,-1.89653 -29.80761,-11.13367 -45.68261,-8.91646 -6.66044,0.92992 -13.71106,4.13032 -17.24484,10.12861 -0.019,0.0324 0.0282,0.0579 0.0494,0.0289 4.16349,-5.65574 10.60451,-8.84344 17.50801,-9.66894 8.15517,-0.97508 16.33961,1.35643 24.02523,3.83117 7.87153,2.53471 15.74483,5.49557 24.07074,6.04837 3.57893,0.23742 7.38999,0.0198 10.56886,-1.80657 2.55341,-1.46685 4.48734,-4.35787 4.76603,-7.31026 0.32666,-3.46111 -2.01684,-6.25899 -5.13434,-7.44256"
         style="fill:#231f20;fill-opacity:1;fill-rule:nonzero;stroke:none;stroke-width:0.0352778"
         id="path64-9" />
      <path
         d="m -805.60883,-349.69406 c -4.55048,1.19733 -9.18034,1.22414 -13.79679,0.3863 -4.4958,-0.81563 -8.80851,-2.32975 -13.11169,-3.82906 -7.71102,-2.68605 -15.71872,-5.39361 -23.98078,-3.92394 -3.94688,0.70203 -7.69267,2.36149 -10.55758,5.20982 -0.0106,0.0102 0.005,0.0261 0.0162,0.0159 5.77638,-5.44477 14.26281,-6.00816 21.69583,-4.56918 8.78593,1.70074 16.84409,5.95242 25.65612,7.55756 4.65879,0.84843 9.63754,1.05586 14.15451,-0.57256 0.17003,-0.0614 0.10407,-0.32208 -0.0758,-0.27481"
         style="fill:#231f20;fill-opacity:1;fill-rule:nonzero;stroke:none;stroke-width:0.0352778"
         id="path66-3" />
      <path
         d="m -933.23696,-368.98677 c 4.0513,-1.53811 8.40906,-0.25612 12.31565,1.09185 0.0889,0.0307 0.0533,0.16933 -0.0395,0.14287 -3.6732,-1.04669 -7.70753,-2.23802 -11.4784,-0.98037 -3.11366,1.03858 -5.69723,3.71793 -5.29344,7.1882 0.40281,3.46252 3.27738,5.9743 6.43019,7.05803 3.52076,1.21073 7.34783,1.05622 10.99217,0.60713 15.3924,-1.89653 29.80725,-11.13367 45.68225,-8.91646 6.66045,0.92992 13.71142,4.13032 17.24484,10.12861 0.019,0.0324 -0.0279,0.0579 -0.049,0.0289 -4.16383,-5.65574 -10.6045,-8.84344 -17.50836,-9.66894 -8.15481,-0.97508 -16.33961,1.35643 -24.02522,3.83117 -7.87153,2.5347 -15.74483,5.49557 -24.07074,6.04837 -3.57865,0.23742 -7.38974,0.0198 -10.56873,-1.80657 -2.55337,-1.46685 -4.48744,-4.35787 -4.76596,-7.31027 -0.3266,-3.4611 2.01662,-6.25898 5.1343,-7.44255"
         style="fill:#231f20;fill-opacity:1;fill-rule:nonzero;stroke:none;stroke-width:0.0352778"
         id="path68-8" />
      <path
         d="m -924.02847,-349.69406 c 4.55072,1.19733 9.18058,1.22414 13.79668,0.3863 4.4958,-0.81563 8.80851,-2.32975 13.11169,-3.82906 7.71102,-2.68605 15.71872,-5.39361 23.98077,-3.92394 3.94688,0.70203 7.69303,2.36149 10.55759,5.20982 0.0106,0.0102 -0.005,0.0261 -0.0159,0.0159 -5.77674,-5.44477 -14.26316,-6.00816 -21.69619,-4.56918 -8.78593,1.70074 -16.84373,5.95242 -25.65612,7.55756 -4.65878,0.84843 -9.63754,1.05586 -14.15422,-0.57256 -0.17032,-0.0614 -0.10418,-0.32208 0.0757,-0.27481"
         style="fill:#231f20;fill-opacity:1;fill-rule:nonzero;stroke:none;stroke-width:0.0352778"
         id="path70-0" />
    </g>
  </g>
</svg>
